<?xml version="1.0" encoding="utf-8"?>
<!DOCTYPE svg PUBLIC "-//W3C//DTD SVG 1.1//EN" "http://www.w3.org/Graphics/SVG/1.1/DTD/svg11.dtd">
<svg version="1.1" xmlns="http://www.w3.org/2000/svg" xmlns:xlink="http://www.w3.org/1999/xlink" x="0px" y="0px" width="126px"
	 height="145px" viewBox="0 0 126 145" enable-background="new 0 0 126 145" xml:space="preserve">
<g id="Layer_1">
	<g>
		<path d="M63,21.752c16.542,0,30,13.458,30,30s-13.458,30-30,30s-30-13.458-30-30S46.458,21.752,63,21.752 M63,15.752
			c-19.883,0-36,16.117-36,36c0,19.882,16.117,36,36,36s36-16.117,36-36C99,31.87,82.883,15.752,63,15.752L63,15.752z"/>
	</g>
	<g>
		<defs>
			<rect id="SVGID_1_" x="27" y="15.752" width="72" height="72"/>
		</defs>
		<clipPath id="SVGID_2_">
			<use xlink:href="#SVGID_1_"  overflow="visible"/>
		</clipPath>

			<line clip-path="url(#SVGID_2_)" fill="none" stroke="#000000" stroke-width="7" stroke-miterlimit="2" x1="27" y1="87.752" x2="99" y2="15.752"/>
	</g>
</g>
<g id="Layer_2">
	<g>
		<path d="M31.34,113.073v0.633h-1.91v16.43h-0.633l-10.945-15.891l-0.07,0.023v15.234h1.91v0.633h-4.465v-0.633h1.91v-15.797h-1.91
			v-0.633h1.91h0.645l10.945,15.855l0.07-0.023v-15.199h-1.91v-0.633h2.543H31.34z"/>
		<path d="M44.13,127.862c-0.398,0.805-0.967,1.426-1.705,1.863s-1.635,0.656-2.689,0.656c-1.305,0-2.326-0.463-3.064-1.389
			s-1.107-2.361-1.107-4.307v-6.598h-1.676v-0.633h1.676h0.633v7.254c0,1.719,0.316,2.988,0.949,3.809s1.488,1.23,2.566,1.23
			c1.32,0,2.334-0.324,3.041-0.973s1.158-1.508,1.354-2.578v-8.109h-1.91v-0.633h1.91h0.645v12.047h1.91v0.633h-2.438L44.13,127.862
			z"/>
		<path d="M49.854,112.487v-0.633h2.543v17.648h1.91v0.633h-4.453v-0.633h1.91v-17.016H49.854z"/>
		<path d="M57.862,112.487v-0.633h2.543v17.648h1.91v0.633h-4.453v-0.633h1.91v-17.016H57.862z"/>
		<path d="M72.684,130.135v-0.633h1.91v-15.797h-1.91v-0.633h1.91h0.645h1.91v0.633h-1.91v15.797h8.121v-2.801h0.633v3.434H72.684z"
			/>
		<path d="M90.407,114.034v3.422h3.117v0.645h-3.117v8.766c0,1.039,0.176,1.779,0.527,2.221s0.816,0.662,1.395,0.662
			c0.25,0,0.473-0.008,0.668-0.023s0.465-0.043,0.809-0.082l0.117,0.574c-0.234,0.063-0.475,0.105-0.721,0.129
			s-0.525,0.035-0.838,0.035c-0.852,0-1.498-0.277-1.939-0.832s-0.662-1.449-0.662-2.684V118.1h-2.344v-0.645h2.344v-3.422H90.407z"
			/>
		<path d="M106.584,128.108c-0.414,0.695-0.988,1.248-1.723,1.658s-1.602,0.615-2.602,0.615c-1.492,0-2.658-0.57-3.498-1.711
			s-1.26-2.688-1.26-4.641v-0.246c0-2.008,0.422-3.604,1.266-4.787s2.016-1.775,3.516-1.775c1,0,1.859,0.229,2.578,0.686
			s1.293,1.084,1.723,1.881v-7.301h-1.91v-0.633h1.91h0.633v17.648h1.91v0.633h-2.52L106.584,128.108z M98.158,124.03
			c0,1.75,0.346,3.141,1.037,4.172s1.709,1.547,3.053,1.547c1.102,0,2.018-0.25,2.748-0.75s1.26-1.168,1.588-2.004v-5.941
			c-0.305-0.906-0.797-1.666-1.477-2.279s-1.625-0.92-2.836-0.92c-1.344,0-2.365,0.549-3.064,1.646s-1.049,2.525-1.049,4.283V124.03
			z"/>
	</g>
</g>
</svg>
